<svg width="19" height="21" viewBox="0 0 19 21" fill="none" xmlns="http://www.w3.org/2000/svg">
<path fill-rule="evenodd" clip-rule="evenodd" d="M10.4583 0.916992H8.54167V2.83366H6.625V4.75033H4.70833V6.66699H2.79167H0.875V8.58366V12.417V14.3337H2.79167H4.70833V16.2503H6.625V18.167H8.54167V20.0837H10.4583V0.916992ZM6.625 16.2503V14.3337H4.70833V12.417H2.79167V8.58366H4.70833V6.66699H6.625V4.75033H8.54167V16.2503L6.625 16.2503ZM16.2086 9.75596H14.2921V7.83929H12.3755V9.75596H14.2919V11.6726H12.3755V13.5893H14.2921V11.6726H16.2086V13.5893H18.1252V11.6726H16.2086V9.75596ZM16.2086 9.75596H18.1252V7.83929H16.2086V9.75596Z" fill="black"/>
</svg>
